<svg xmlns="http://www.w3.org/2000/svg" viewBox="0 0 64 64">
  <defs>
    <linearGradient id="sunshine" x1="0" x2="1" y1="0" y2="1">
      <stop offset="0" stop-color="#facc15" />
      <stop offset="1" stop-color="#f59e0b" />
    </linearGradient>
  </defs>
  <rect width="64" height="64" rx="14" fill="#f8fafc" />
  <circle cx="24" cy="24" r="11" fill="url(#sunshine)" />
  <g stroke="#f59e0b" stroke-width="3" stroke-linecap="round">
    <line x1="24" y1="5" x2="24" y2="11" />
    <line x1="24" y1="37" x2="24" y2="43" />
    <line x1="5" y1="24" x2="11" y2="24" />
    <line x1="37" y1="24" x2="43" y2="24" />
    <line x1="11" y1="11" x2="15" y2="15" />
    <line x1="33" y1="33" x2="37" y2="37" />
    <line x1="11" y1="37" x2="15" y2="33" />
    <line x1="33" y1="15" x2="37" y2="11" />
  </g>
  <g fill="#3b82f6">
    <path d="M41 27c5 0 9 4 9 9 0 4.4-3.2 8.1-7.4 8.9H27.5C22.8 44.9 19 41.1 19 36.5 19 32 22.6 28.3 27.2 28.2c1.6-4 5.5-6.7 9.8-6.7 2.2 0 4.2.7 5.8 2z" />
    <path d="M26 49c0 2.2-1.8 4-4 4s-4-1.8-4-4 4-6 4-6 4 3.8 4 6z" />
    <path d="M38 50c0 2.2-1.8 4-4 4s-4-1.8-4-4 4-6 4-6 4 3.8 4 6z" />
  </g>
</svg>
